<svg width="648" height="144" viewBox="0 0 648 144" fill="none" xmlns="http://www.w3.org/2000/svg">
<circle cx="226.807" cy="4" r="4" fill="#56EAC8"/>
<circle cx="226.807" cy="59.1572" r="4" fill="#56EAC8"/>
<circle cx="4" cy="31.5786" r="4" fill="#56EAC8"/>
<circle cx="226.807" cy="31.5786" r="4" fill="#56EAC8"/>
<circle cx="4" cy="4" r="4" fill="#56EAC8"/>
<circle cx="4" cy="59.1572" r="4" fill="#56EAC8"/>
<circle cx="337.846" cy="4" r="4" fill="#56EAC8"/>
<circle cx="531.461" cy="4" r="4" fill="#56EAC8"/>
<circle cx="337.846" cy="59.1572" r="4" fill="#56EAC8"/>
<circle cx="531.461" cy="59.1572" r="4" fill="#56EAC8"/>
<circle cx="115.041" cy="31.5786" r="4" fill="#56EAC8"/>
<circle cx="337.846" cy="31.5786" r="4" fill="#56EAC8"/>
<circle cx="531.461" cy="31.5786" r="4" fill="#56EAC8"/>
<circle cx="115.041" cy="4" r="4" fill="#56EAC8"/>
<circle cx="115.041" cy="59.1572" r="4" fill="#56EAC8"/>
<circle cx="254.385" cy="4" r="4" fill="#56EAC8"/>
<circle cx="448" cy="4" r="4" fill="#56EAC8"/>
<circle cx="254.385" cy="59.1572" r="4" fill="#56EAC8"/>
<circle cx="448" cy="59.1572" r="4" fill="#56EAC8"/>
<circle cx="31.5781" cy="31.5786" r="4" fill="#56EAC8"/>
<circle cx="254.385" cy="31.5786" r="4" fill="#56EAC8"/>
<circle cx="448" cy="31.5786" r="4" fill="#56EAC8"/>
<circle cx="31.5781" cy="4" r="4" fill="#56EAC8"/>
<circle cx="31.5781" cy="59.1572" r="4" fill="#56EAC8"/>
<circle cx="365.424" cy="4" r="4" fill="#56EAC8"/>
<circle cx="559.039" cy="4" r="4" fill="#56EAC8"/>
<circle cx="365.424" cy="59.1572" r="4" fill="#56EAC8"/>
<circle cx="559.039" cy="59.1572" r="4" fill="#56EAC8"/>
<circle cx="142.619" cy="31.5786" r="4" fill="#56EAC8"/>
<circle cx="365.424" cy="31.5786" r="4" fill="#56EAC8"/>
<circle cx="559.039" cy="31.5786" r="4" fill="#56EAC8"/>
<circle cx="142.619" cy="4" r="4" fill="#56EAC8"/>
<circle cx="142.619" cy="59.1572" r="4" fill="#56EAC8"/>
<circle cx="281.963" cy="4" r="4" fill="#56EAC8"/>
<circle cx="475.578" cy="4" r="4" fill="#56EAC8"/>
<circle cx="281.963" cy="59.1572" r="4" fill="#56EAC8"/>
<circle cx="475.578" cy="59.1572" r="4" fill="#56EAC8"/>
<circle cx="59.1562" cy="31.5786" r="4" fill="#56EAC8"/>
<circle cx="281.963" cy="31.5786" r="4" fill="#56EAC8"/>
<circle cx="475.578" cy="31.5786" r="4" fill="#56EAC8"/>
<circle cx="59.1562" cy="4" r="4" fill="#56EAC8"/>
<circle cx="59.1562" cy="59.1572" r="4" fill="#56EAC8"/>
<circle cx="393.004" cy="4" r="4" fill="#56EAC8"/>
<circle cx="586.619" cy="4" r="4" fill="#56EAC8"/>
<circle cx="393.004" cy="59.1572" r="4" fill="#56EAC8"/>
<circle cx="586.619" cy="59.1572" r="4" fill="#56EAC8"/>
<circle cx="170.197" cy="31.5786" r="4" fill="#56EAC8"/>
<circle cx="393.004" cy="31.5786" r="4" fill="#56EAC8"/>
<circle cx="586.619" cy="31.5786" r="4" fill="#56EAC8"/>
<circle cx="170.197" cy="4" r="4" fill="#56EAC8"/>
<circle cx="170.197" cy="59.1572" r="4" fill="#56EAC8"/>
<circle cx="310.268" cy="4" r="4" fill="#56EAC8"/>
<circle cx="503.883" cy="4" r="4" fill="#56EAC8"/>
<circle cx="310.268" cy="59.1572" r="4" fill="#56EAC8"/>
<circle cx="503.883" cy="59.1572" r="4" fill="#56EAC8"/>
<circle cx="87.4609" cy="31.5786" r="4" fill="#56EAC8"/>
<circle cx="310.268" cy="31.5786" r="4" fill="#56EAC8"/>
<circle cx="503.883" cy="31.5786" r="4" fill="#56EAC8"/>
<circle cx="87.4609" cy="4" r="4" fill="#56EAC8"/>
<circle cx="87.4609" cy="59.1572" r="4" fill="#56EAC8"/>
<circle cx="421.309" cy="4" r="4" fill="#56EAC8"/>
<circle cx="421.309" cy="59.1572" r="4" fill="#56EAC8"/>
<circle cx="198.502" cy="31.5786" r="4" fill="#56EAC8"/>
<circle cx="421.309" cy="31.5786" r="4" fill="#56EAC8"/>
<circle cx="198.502" cy="4" r="4" fill="#56EAC8"/>
<circle cx="198.502" cy="59.1572" r="4" fill="#56EAC8"/>
<circle cx="614.924" cy="59.1572" r="4" fill="#56EAC8"/>
<circle cx="614.924" cy="31.5786" r="4" fill="#56EAC8"/>
<circle cx="614.924" cy="4" r="4" fill="#56EAC8"/>
<circle cx="644" cy="4" r="4" fill="#56EAC8"/>
<circle cx="644" cy="59.1572" r="4" fill="#56EAC8"/>
<circle cx="644" cy="31.5786" r="4" fill="#56EAC8"/>
<circle cx="226.807" cy="84" r="4" fill="#56EAC8"/>
<circle cx="226.807" cy="139.157" r="4" fill="#56EAC8"/>
<circle cx="4" cy="111.579" r="4" fill="#56EAC8"/>
<circle cx="226.807" cy="111.579" r="4" fill="#56EAC8"/>
<circle cx="4" cy="84" r="4" fill="#56EAC8"/>
<circle cx="4" cy="139.157" r="4" fill="#56EAC8"/>
<circle cx="337.846" cy="84" r="4" fill="#56EAC8"/>
<circle cx="531.461" cy="84" r="4" fill="#56EAC8"/>
<circle cx="337.846" cy="139.157" r="4" fill="#56EAC8"/>
<circle cx="531.461" cy="139.157" r="4" fill="#56EAC8"/>
<circle cx="115.041" cy="111.579" r="4" fill="#56EAC8"/>
<circle cx="337.846" cy="111.579" r="4" fill="#56EAC8"/>
<circle cx="531.461" cy="111.579" r="4" fill="#56EAC8"/>
<circle cx="115.041" cy="84" r="4" fill="#56EAC8"/>
<circle cx="115.041" cy="139.157" r="4" fill="#56EAC8"/>
<circle cx="254.385" cy="84" r="4" fill="#56EAC8"/>
<circle cx="448" cy="84" r="4" fill="#56EAC8"/>
<circle cx="254.385" cy="139.157" r="4" fill="#56EAC8"/>
<circle cx="448" cy="139.157" r="4" fill="#56EAC8"/>
<circle cx="31.5781" cy="111.579" r="4" fill="#56EAC8"/>
<circle cx="254.385" cy="111.579" r="4" fill="#56EAC8"/>
<circle cx="448" cy="111.579" r="4" fill="#56EAC8"/>
<circle cx="31.5781" cy="84" r="4" fill="#56EAC8"/>
<circle cx="31.5781" cy="139.157" r="4" fill="#56EAC8"/>
<circle cx="365.424" cy="84" r="4" fill="#56EAC8"/>
<circle cx="559.039" cy="84" r="4" fill="#56EAC8"/>
<circle cx="365.424" cy="139.157" r="4" fill="#56EAC8"/>
<circle cx="559.039" cy="139.157" r="4" fill="#56EAC8"/>
<circle cx="142.619" cy="111.579" r="4" fill="#56EAC8"/>
<circle cx="365.424" cy="111.579" r="4" fill="#56EAC8"/>
<circle cx="559.039" cy="111.579" r="4" fill="#56EAC8"/>
<circle cx="142.619" cy="84" r="4" fill="#56EAC8"/>
<circle cx="142.619" cy="139.157" r="4" fill="#56EAC8"/>
<circle cx="281.963" cy="84" r="4" fill="#56EAC8"/>
<circle cx="475.578" cy="84" r="4" fill="#56EAC8"/>
<circle cx="281.963" cy="139.157" r="4" fill="#56EAC8"/>
<circle cx="475.578" cy="139.157" r="4" fill="#56EAC8"/>
<circle cx="59.1562" cy="111.579" r="4" fill="#56EAC8"/>
<circle cx="281.963" cy="111.579" r="4" fill="#56EAC8"/>
<circle cx="475.578" cy="111.579" r="4" fill="#56EAC8"/>
<circle cx="59.1562" cy="84" r="4" fill="#56EAC8"/>
<circle cx="59.1562" cy="139.157" r="4" fill="#56EAC8"/>
<circle cx="393.004" cy="84" r="4" fill="#56EAC8"/>
<circle cx="586.619" cy="84" r="4" fill="#56EAC8"/>
<circle cx="393.004" cy="139.157" r="4" fill="#56EAC8"/>
<circle cx="586.619" cy="139.157" r="4" fill="#56EAC8"/>
<circle cx="170.197" cy="111.579" r="4" fill="#56EAC8"/>
<circle cx="393.004" cy="111.579" r="4" fill="#56EAC8"/>
<circle cx="586.619" cy="111.579" r="4" fill="#56EAC8"/>
<circle cx="170.197" cy="84" r="4" fill="#56EAC8"/>
<circle cx="170.197" cy="139.157" r="4" fill="#56EAC8"/>
<circle cx="310.268" cy="84" r="4" fill="#56EAC8"/>
<circle cx="503.883" cy="84" r="4" fill="#56EAC8"/>
<circle cx="310.268" cy="139.157" r="4" fill="#56EAC8"/>
<circle cx="503.883" cy="139.157" r="4" fill="#56EAC8"/>
<circle cx="87.4609" cy="111.579" r="4" fill="#56EAC8"/>
<circle cx="310.268" cy="111.579" r="4" fill="#56EAC8"/>
<circle cx="503.883" cy="111.579" r="4" fill="#56EAC8"/>
<circle cx="87.4609" cy="84" r="4" fill="#56EAC8"/>
<circle cx="87.4609" cy="139.157" r="4" fill="#56EAC8"/>
<circle cx="421.309" cy="84" r="4" fill="#56EAC8"/>
<circle cx="421.309" cy="139.157" r="4" fill="#56EAC8"/>
<circle cx="198.502" cy="111.579" r="4" fill="#56EAC8"/>
<circle cx="421.309" cy="111.579" r="4" fill="#56EAC8"/>
<circle cx="198.502" cy="84" r="4" fill="#56EAC8"/>
<circle cx="198.502" cy="139.157" r="4" fill="#56EAC8"/>
<circle cx="614.924" cy="139.157" r="4" fill="#56EAC8"/>
<circle cx="614.924" cy="111.579" r="4" fill="#56EAC8"/>
<circle cx="614.924" cy="84" r="4" fill="#56EAC8"/>
<circle cx="644" cy="84" r="4" fill="#56EAC8"/>
<circle cx="644" cy="139.157" r="4" fill="#56EAC8"/>
<circle cx="644" cy="111.579" r="4" fill="#56EAC8"/>
</svg>
