<svg width="99" height="95" viewBox="0 0 99 95" fill="none" xmlns="http://www.w3.org/2000/svg">
<path d="M1.44319 70.2027C2.23995 70.2027 2.88637 69.5571 2.88637 68.7596V26.726H88.1554V42.5898C88.1554 43.3873 88.8018 44.033 89.5986 44.033C90.3961 44.033 91.0418 43.3873 91.0418 42.5898V14.0681C91.0418 9.22963 87.1053 5.29319 82.2676 5.29319H78.483V3.50574C78.483 1.57247 76.9106 0 74.9773 0H72.2961C70.3636 0 68.7911 1.57247 68.7911 3.50574V5.29319H59.2195V3.50574C59.2195 1.57247 57.647 0 55.7138 0H53.0326C51.1001 0 49.5276 1.57247 49.5276 3.50574V5.29319H39.9552V3.50574C39.9552 1.57247 38.3827 0 36.4495 0H33.7691C31.8358 0 30.2633 1.57247 30.2633 3.50574V5.29319H20.6917V3.50574C20.6917 1.57247 19.1192 0 17.1859 0H14.5055C12.5723 0 10.9998 1.57247 10.9998 3.50574V5.29319H8.77487C3.93644 5.29319 0 9.22963 0 14.0681V68.7596C0 69.5571 0.646427 70.2027 1.44319 70.2027ZM71.6775 3.50574C71.6775 3.16449 71.9556 2.88637 72.2969 2.88637H74.978C75.3193 2.88637 75.5967 3.16449 75.5967 3.50574V10.5172C75.5967 10.8585 75.3193 11.1366 74.978 11.1366H72.2969C71.9556 11.1366 71.6775 10.8592 71.6775 10.5172V3.50574ZM52.414 3.50574C52.414 3.16449 52.6913 2.88637 53.0326 2.88637H55.7138C56.055 2.88637 56.3331 3.16449 56.3331 3.50574V10.5172C56.3331 10.8585 56.055 11.1366 55.7138 11.1366H53.0326C52.6913 11.1366 52.414 10.8592 52.414 10.5172V3.50574ZM33.1497 3.50574C33.1497 3.16449 33.4278 2.88637 33.7691 2.88637H36.4502C36.7915 2.88637 37.0696 3.16449 37.0696 3.50574V10.5172C37.0696 10.8585 36.7915 11.1366 36.4502 11.1366H33.7691C33.4278 11.1366 33.1497 10.8592 33.1497 10.5172V3.50574ZM13.8862 3.50574C13.8862 3.16449 14.1643 2.88637 14.5055 2.88637H17.1867C17.528 2.88637 17.8053 3.16449 17.8053 3.50574V10.5172C17.8053 10.8585 17.528 11.1366 17.1867 11.1366H14.5055C14.1643 11.1366 13.8862 10.8592 13.8862 10.5172V3.50574ZM8.77487 8.17956H10.9998V10.5172C10.9998 12.4505 12.5723 14.023 14.5055 14.023H17.1867C19.1192 14.023 20.6917 12.4505 20.6917 10.5172V8.17956H30.2641V10.5172C30.2641 12.4505 31.8365 14.023 33.7691 14.023H36.4502C38.3835 14.023 39.956 12.4505 39.956 10.5172V8.17956H49.5276V10.5172C49.5276 12.4505 51.1001 14.023 53.0333 14.023H55.7145C57.647 14.023 59.2195 12.4505 59.2195 10.5172V8.17956H68.7911V10.5172C68.7911 12.4505 70.3636 14.023 72.2969 14.023H74.978C76.9106 14.023 78.483 12.4505 78.483 10.5172V8.17956H82.2676C85.5148 8.17956 88.1561 10.8209 88.1561 14.0681V23.8396H2.88637V14.0681C2.88637 10.8209 5.5277 8.17956 8.77487 8.17956Z" fill="#EEC660"/>
<path d="M16.3388 83.6244H3.75454C3.27573 83.6244 2.88637 83.235 2.88637 82.7562V75.3366C2.88637 74.5391 2.23995 73.8934 1.44319 73.8934C0.646427 73.8934 0 74.5391 0 75.3366V82.7562C0 84.8263 1.68447 86.5108 3.75454 86.5108H16.3388C17.1356 86.5108 17.782 85.8643 17.782 85.0676C17.782 84.2701 17.1356 83.6244 16.3388 83.6244Z" fill="#EEC660"/>
<path d="M16.2898 30.9346H11.2733C10.4765 30.9346 9.83008 31.581 9.83008 32.3778C9.83008 33.1753 10.4765 33.8209 11.2733 33.8209H16.2898C17.0866 33.8209 17.733 33.1753 17.733 32.3778C17.733 31.581 17.0866 30.9346 16.2898 30.9346Z" fill="#EEC660"/>
<path d="M26.6912 33.8209H31.7078C32.5046 33.8209 33.151 33.1753 33.151 32.3778C33.151 31.581 32.5046 30.9346 31.7078 30.9346H26.6912C25.8945 30.9346 25.248 31.581 25.248 32.3778C25.248 33.1753 25.8945 33.8209 26.6912 33.8209Z" fill="#EEC660"/>
<path d="M42.1072 33.8209H47.1231C47.9198 33.8209 48.5663 33.1753 48.5663 32.3778C48.5663 31.581 47.9198 30.9346 47.1231 30.9346H42.1072C41.3097 30.9346 40.6641 31.581 40.6641 32.3778C40.6641 33.1753 41.3097 33.8209 42.1072 33.8209Z" fill="#EEC660"/>
<path d="M57.5233 33.8209H62.5398C63.3366 33.8209 63.983 33.1753 63.983 32.3778C63.983 31.581 63.3366 30.9346 62.5398 30.9346H57.5233C56.7265 30.9346 56.0801 31.581 56.0801 32.3778C56.0801 33.1753 56.7265 33.8209 57.5233 33.8209Z" fill="#EEC660"/>
<path d="M77.9551 30.9346H72.9393C72.1418 30.9346 71.4961 31.581 71.4961 32.3778C71.4961 33.1753 72.1418 33.8209 72.9393 33.8209H77.9551C78.7519 33.8209 79.3983 33.1753 79.3983 32.3778C79.3983 31.581 78.7519 30.9346 77.9551 30.9346Z" fill="#EEC660"/>
<path d="M16.2898 38.1918H11.2733C10.4765 38.1918 9.83008 38.8375 9.83008 39.635C9.83008 40.4325 10.4765 41.0782 11.2733 41.0782H16.2898C17.0866 41.0782 17.733 40.4325 17.733 39.635C17.733 38.8375 17.0866 38.1918 16.2898 38.1918Z" fill="#EEC660"/>
<path d="M26.6912 41.0782H31.7078C32.5046 41.0782 33.151 40.4325 33.151 39.635C33.151 38.8375 32.5046 38.1918 31.7078 38.1918H26.6912C25.8945 38.1918 25.248 38.8375 25.248 39.635C25.248 40.4325 25.8945 41.0782 26.6912 41.0782Z" fill="#EEC660"/>
<path d="M42.1072 41.0782H47.1231C47.9198 41.0782 48.5663 40.4325 48.5663 39.635C48.5663 38.8375 47.9198 38.1918 47.1231 38.1918H42.1072C41.3097 38.1918 40.6641 38.8375 40.6641 39.635C40.6641 40.4325 41.3097 41.0782 42.1072 41.0782Z" fill="#EEC660"/>
<path d="M57.5233 41.0782H62.5398C63.3366 41.0782 63.983 40.4325 63.983 39.635C63.983 38.8375 63.3366 38.1918 62.5398 38.1918H57.5233C56.7265 38.1918 56.0801 38.8375 56.0801 39.635C56.0801 40.4325 56.7265 41.0782 57.5233 41.0782Z" fill="#EEC660"/>
<path d="M77.9551 38.1918H72.9393C72.1418 38.1918 71.4961 38.8375 71.4961 39.635C71.4961 40.4325 72.1418 41.0782 72.9393 41.0782H77.9551C78.7519 41.0782 79.3983 40.4325 79.3983 39.635C79.3983 38.8375 78.7519 38.1918 77.9551 38.1918Z" fill="#EEC660"/>
<path d="M26.7265 69.4105L34.1468 76.8309C35.2202 77.9043 36.6469 78.4951 38.1652 78.4951C39.6836 78.4951 41.111 77.9043 42.1836 76.8309L62.5047 56.5098C64.7206 54.2939 64.7206 50.6882 62.5047 48.4723C60.2888 46.2564 56.6831 46.2564 54.4672 48.4723L38.1652 64.7743L34.7632 61.373C32.5481 59.1571 28.9424 59.1571 26.7257 61.373C24.5106 63.5889 24.5106 67.1946 26.7265 69.4105ZM28.7672 63.4138C29.3122 62.8688 30.0285 62.596 30.7448 62.596C31.4612 62.596 32.1775 62.8688 32.7225 63.4138L37.1445 67.8358C37.7082 68.3995 38.6215 68.3995 39.1852 67.8358L56.508 50.5138C57.5994 49.4231 59.3733 49.4231 60.4632 50.513C61.5539 51.6037 61.5539 53.3784 60.4632 54.469L40.1428 74.7894C39.6144 75.3178 38.9124 75.6087 38.1652 75.6087C37.4181 75.6087 36.716 75.3178 36.1876 74.7894L28.7672 67.369C27.6766 66.2783 27.6766 64.5044 28.7672 63.4138Z" fill="#EEC660"/>
<path d="M91.0425 60.683V49.1668C91.0425 48.3693 90.3968 47.7236 89.5993 47.7236C88.8026 47.7236 88.1561 48.3693 88.1561 49.1668V58.8422C85.5246 57.4779 82.5382 56.706 79.3752 56.706C68.8174 56.706 60.2282 65.2952 60.2282 75.853C60.2282 78.6183 60.8183 81.2477 61.8774 83.6244H22.9158C22.1191 83.6244 21.4727 84.2701 21.4727 85.0676C21.4727 85.8643 22.1191 86.5108 22.9158 86.5108H63.4761C66.9165 91.6273 72.7591 95 79.3752 95C89.9331 95 98.5223 86.4108 98.5223 75.853C98.5223 69.6834 95.5878 64.1865 91.0425 60.683ZM79.3752 92.1136C70.4087 92.1136 63.1146 84.8195 63.1146 75.853C63.1146 66.8864 70.4095 59.5923 79.3752 59.5923C88.341 59.5923 95.6359 66.8864 95.6359 75.853C95.6359 84.8195 88.341 92.1136 79.3752 92.1136Z" fill="#EEC660"/>
<path d="M79.3748 61.6774C71.5583 61.6774 65.1992 68.0372 65.1992 75.853C65.1992 83.6695 71.5583 90.0285 79.3748 90.0285C87.1913 90.0285 93.5496 83.6695 93.5496 75.853C93.5496 68.0372 87.1905 61.6774 79.3748 61.6774ZM80.6669 87.0655C80.7623 86.8723 80.818 86.6558 80.818 86.4258V84.6677C80.818 83.8709 80.1715 83.2245 79.3748 83.2245C78.578 83.2245 77.9316 83.8709 77.9316 84.6677V86.4258C77.9316 86.6558 77.9865 86.8723 78.0827 87.0655C72.8887 86.4709 68.7568 82.339 68.1623 77.1451C68.3547 77.2413 68.5719 77.2962 68.8019 77.2962H70.5593C71.3568 77.2962 72.0025 76.6505 72.0025 75.853C72.0025 75.0555 71.3568 74.4098 70.5593 74.4098H68.8019C68.5719 74.4098 68.3547 74.4654 68.1623 74.5609C68.7568 69.3669 72.8887 65.235 78.0827 64.6405C77.9865 64.8336 77.9316 65.0501 77.9316 65.2801V67.0383C77.9316 67.8358 78.578 68.4815 79.3748 68.4815C80.1715 68.4815 80.818 67.8358 80.818 67.0383V65.2801C80.818 65.0501 80.7623 64.8336 80.6669 64.6405C85.8608 65.235 89.9927 69.3669 90.5873 74.5609C90.3941 74.4654 90.1776 74.4098 89.9476 74.4098H88.1895C87.3927 74.4098 86.7463 75.0555 86.7463 75.853C86.7463 76.6505 87.3927 77.2962 88.1895 77.2962H89.9476C90.1776 77.2962 90.3941 77.2413 90.5873 77.1451C89.992 82.339 85.8608 86.4709 80.6669 87.0655Z" fill="#EEC660"/>
<path d="M82.5559 74.4098H80.818V72.9298C80.818 72.133 80.1716 71.4866 79.3748 71.4866C78.5773 71.4866 77.9316 72.133 77.9316 72.9298V75.853C77.9316 76.6505 78.5773 77.2961 79.3748 77.2961H82.5559C83.3526 77.2961 83.999 76.6505 83.999 75.853C83.999 75.0555 83.3526 74.4098 82.5559 74.4098Z" fill="#EEC660"/>
<path d="M1.44319 70.2027C2.23995 70.2027 2.88637 69.5571 2.88637 68.7596V26.726H88.1554V42.5898C88.1554 43.3873 88.8018 44.033 89.5986 44.033C90.3961 44.033 91.0418 43.3873 91.0418 42.5898V14.0681C91.0418 9.22963 87.1053 5.29319 82.2676 5.29319H78.483V3.50574C78.483 1.57247 76.9106 0 74.9773 0H72.2961C70.3636 0 68.7911 1.57247 68.7911 3.50574V5.29319H59.2195V3.50574C59.2195 1.57247 57.647 0 55.7138 0H53.0326C51.1001 0 49.5276 1.57247 49.5276 3.50574V5.29319H39.9552V3.50574C39.9552 1.57247 38.3827 0 36.4495 0H33.7691C31.8358 0 30.2633 1.57247 30.2633 3.50574V5.29319H20.6917V3.50574C20.6917 1.57247 19.1192 0 17.1859 0H14.5055C12.5723 0 10.9998 1.57247 10.9998 3.50574V5.29319H8.77487C3.93644 5.29319 0 9.22963 0 14.0681V68.7596C0 69.5571 0.646427 70.2027 1.44319 70.2027ZM71.6775 3.50574C71.6775 3.16449 71.9556 2.88637 72.2969 2.88637H74.978C75.3193 2.88637 75.5967 3.16449 75.5967 3.50574V10.5172C75.5967 10.8585 75.3193 11.1366 74.978 11.1366H72.2969C71.9556 11.1366 71.6775 10.8592 71.6775 10.5172V3.50574ZM52.414 3.50574C52.414 3.16449 52.6913 2.88637 53.0326 2.88637H55.7138C56.055 2.88637 56.3331 3.16449 56.3331 3.50574V10.5172C56.3331 10.8585 56.055 11.1366 55.7138 11.1366H53.0326C52.6913 11.1366 52.414 10.8592 52.414 10.5172V3.50574ZM33.1497 3.50574C33.1497 3.16449 33.4278 2.88637 33.7691 2.88637H36.4502C36.7915 2.88637 37.0696 3.16449 37.0696 3.50574V10.5172C37.0696 10.8585 36.7915 11.1366 36.4502 11.1366H33.7691C33.4278 11.1366 33.1497 10.8592 33.1497 10.5172V3.50574ZM13.8862 3.50574C13.8862 3.16449 14.1643 2.88637 14.5055 2.88637H17.1867C17.528 2.88637 17.8053 3.16449 17.8053 3.50574V10.5172C17.8053 10.8585 17.528 11.1366 17.1867 11.1366H14.5055C14.1643 11.1366 13.8862 10.8592 13.8862 10.5172V3.50574ZM8.77487 8.17956H10.9998V10.5172C10.9998 12.4505 12.5723 14.023 14.5055 14.023H17.1867C19.1192 14.023 20.6917 12.4505 20.6917 10.5172V8.17956H30.2641V10.5172C30.2641 12.4505 31.8365 14.023 33.7691 14.023H36.4502C38.3835 14.023 39.956 12.4505 39.956 10.5172V8.17956H49.5276V10.5172C49.5276 12.4505 51.1001 14.023 53.0333 14.023H55.7145C57.647 14.023 59.2195 12.4505 59.2195 10.5172V8.17956H68.7911V10.5172C68.7911 12.4505 70.3636 14.023 72.2969 14.023H74.978C76.9106 14.023 78.483 12.4505 78.483 10.5172V8.17956H82.2676C85.5148 8.17956 88.1561 10.8209 88.1561 14.0681V23.8396H2.88637V14.0681C2.88637 10.8209 5.5277 8.17956 8.77487 8.17956Z" fill="#EEC660"/>
<path d="M16.3388 83.6244H3.75454C3.27573 83.6244 2.88637 83.235 2.88637 82.7562V75.3366C2.88637 74.5391 2.23995 73.8934 1.44319 73.8934C0.646427 73.8934 0 74.5391 0 75.3366V82.7562C0 84.8263 1.68447 86.5108 3.75454 86.5108H16.3388C17.1356 86.5108 17.782 85.8643 17.782 85.0676C17.782 84.2701 17.1356 83.6244 16.3388 83.6244Z" fill="#EEC660"/>
<path d="M16.2898 30.9346H11.2733C10.4765 30.9346 9.83008 31.581 9.83008 32.3778C9.83008 33.1753 10.4765 33.8209 11.2733 33.8209H16.2898C17.0866 33.8209 17.733 33.1753 17.733 32.3778C17.733 31.581 17.0866 30.9346 16.2898 30.9346Z" fill="#EEC660"/>
<path d="M26.6912 33.8209H31.7078C32.5046 33.8209 33.151 33.1753 33.151 32.3778C33.151 31.581 32.5046 30.9346 31.7078 30.9346H26.6912C25.8945 30.9346 25.248 31.581 25.248 32.3778C25.248 33.1753 25.8945 33.8209 26.6912 33.8209Z" fill="#EEC660"/>
<path d="M42.1072 33.8209H47.1231C47.9198 33.8209 48.5663 33.1753 48.5663 32.3778C48.5663 31.581 47.9198 30.9346 47.1231 30.9346H42.1072C41.3097 30.9346 40.6641 31.581 40.6641 32.3778C40.6641 33.1753 41.3097 33.8209 42.1072 33.8209Z" fill="#EEC660"/>
<path d="M57.5233 33.8209H62.5398C63.3366 33.8209 63.983 33.1753 63.983 32.3778C63.983 31.581 63.3366 30.9346 62.5398 30.9346H57.5233C56.7265 30.9346 56.0801 31.581 56.0801 32.3778C56.0801 33.1753 56.7265 33.8209 57.5233 33.8209Z" fill="#EEC660"/>
<path d="M77.9551 30.9346H72.9393C72.1418 30.9346 71.4961 31.581 71.4961 32.3778C71.4961 33.1753 72.1418 33.8209 72.9393 33.8209H77.9551C78.7519 33.8209 79.3983 33.1753 79.3983 32.3778C79.3983 31.581 78.7519 30.9346 77.9551 30.9346Z" fill="#EEC660"/>
<path d="M16.2898 38.1918H11.2733C10.4765 38.1918 9.83008 38.8375 9.83008 39.635C9.83008 40.4325 10.4765 41.0782 11.2733 41.0782H16.2898C17.0866 41.0782 17.733 40.4325 17.733 39.635C17.733 38.8375 17.0866 38.1918 16.2898 38.1918Z" fill="#EEC660"/>
<path d="M26.6912 41.0782H31.7078C32.5046 41.0782 33.151 40.4325 33.151 39.635C33.151 38.8375 32.5046 38.1918 31.7078 38.1918H26.6912C25.8945 38.1918 25.248 38.8375 25.248 39.635C25.248 40.4325 25.8945 41.0782 26.6912 41.0782Z" fill="#EEC660"/>
<path d="M42.1072 41.0782H47.1231C47.9198 41.0782 48.5663 40.4325 48.5663 39.635C48.5663 38.8375 47.9198 38.1918 47.1231 38.1918H42.1072C41.3097 38.1918 40.6641 38.8375 40.6641 39.635C40.6641 40.4325 41.3097 41.0782 42.1072 41.0782Z" fill="#EEC660"/>
<path d="M57.5233 41.0782H62.5398C63.3366 41.0782 63.983 40.4325 63.983 39.635C63.983 38.8375 63.3366 38.1918 62.5398 38.1918H57.5233C56.7265 38.1918 56.0801 38.8375 56.0801 39.635C56.0801 40.4325 56.7265 41.0782 57.5233 41.0782Z" fill="#EEC660"/>
<path d="M77.9551 38.1918H72.9393C72.1418 38.1918 71.4961 38.8375 71.4961 39.635C71.4961 40.4325 72.1418 41.0782 72.9393 41.0782H77.9551C78.7519 41.0782 79.3983 40.4325 79.3983 39.635C79.3983 38.8375 78.7519 38.1918 77.9551 38.1918Z" fill="#EEC660"/>
<path d="M26.7265 69.4105L34.1468 76.8309C35.2202 77.9043 36.6469 78.4951 38.1652 78.4951C39.6836 78.4951 41.111 77.9043 42.1836 76.8309L62.5047 56.5098C64.7206 54.2939 64.7206 50.6882 62.5047 48.4723C60.2888 46.2564 56.6831 46.2564 54.4672 48.4723L38.1652 64.7743L34.7632 61.373C32.5481 59.1571 28.9424 59.1571 26.7257 61.373C24.5106 63.5889 24.5106 67.1946 26.7265 69.4105ZM28.7672 63.4138C29.3122 62.8688 30.0285 62.596 30.7448 62.596C31.4612 62.596 32.1775 62.8688 32.7225 63.4138L37.1445 67.8358C37.7082 68.3995 38.6215 68.3995 39.1852 67.8358L56.508 50.5138C57.5994 49.4231 59.3733 49.4231 60.4632 50.513C61.5539 51.6037 61.5539 53.3784 60.4632 54.469L40.1428 74.7894C39.6144 75.3178 38.9124 75.6087 38.1652 75.6087C37.4181 75.6087 36.716 75.3178 36.1876 74.7894L28.7672 67.369C27.6766 66.2783 27.6766 64.5044 28.7672 63.4138Z" fill="#EEC660"/>
<path d="M91.0425 60.683V49.1668C91.0425 48.3693 90.3968 47.7236 89.5993 47.7236C88.8026 47.7236 88.1561 48.3693 88.1561 49.1668V58.8422C85.5246 57.4779 82.5382 56.706 79.3752 56.706C68.8174 56.706 60.2282 65.2952 60.2282 75.853C60.2282 78.6183 60.8183 81.2477 61.8774 83.6244H22.9158C22.1191 83.6244 21.4727 84.2701 21.4727 85.0676C21.4727 85.8643 22.1191 86.5108 22.9158 86.5108H63.4761C66.9165 91.6273 72.7591 95 79.3752 95C89.9331 95 98.5223 86.4108 98.5223 75.853C98.5223 69.6834 95.5878 64.1865 91.0425 60.683ZM79.3752 92.1136C70.4087 92.1136 63.1146 84.8195 63.1146 75.853C63.1146 66.8864 70.4095 59.5923 79.3752 59.5923C88.341 59.5923 95.6359 66.8864 95.6359 75.853C95.6359 84.8195 88.341 92.1136 79.3752 92.1136Z" fill="#EEC660"/>
<path d="M79.3748 61.6774C71.5583 61.6774 65.1992 68.0372 65.1992 75.853C65.1992 83.6695 71.5583 90.0285 79.3748 90.0285C87.1913 90.0285 93.5496 83.6695 93.5496 75.853C93.5496 68.0372 87.1905 61.6774 79.3748 61.6774ZM80.6669 87.0655C80.7623 86.8723 80.818 86.6558 80.818 86.4258V84.6677C80.818 83.8709 80.1715 83.2245 79.3748 83.2245C78.578 83.2245 77.9316 83.8709 77.9316 84.6677V86.4258C77.9316 86.6558 77.9865 86.8723 78.0827 87.0655C72.8887 86.4709 68.7568 82.339 68.1623 77.1451C68.3547 77.2413 68.5719 77.2962 68.8019 77.2962H70.5593C71.3568 77.2962 72.0025 76.6505 72.0025 75.853C72.0025 75.0555 71.3568 74.4098 70.5593 74.4098H68.8019C68.5719 74.4098 68.3547 74.4654 68.1623 74.5609C68.7568 69.3669 72.8887 65.235 78.0827 64.6405C77.9865 64.8336 77.9316 65.0501 77.9316 65.2801V67.0383C77.9316 67.8358 78.578 68.4815 79.3748 68.4815C80.1715 68.4815 80.818 67.8358 80.818 67.0383V65.2801C80.818 65.0501 80.7623 64.8336 80.6669 64.6405C85.8608 65.235 89.9927 69.3669 90.5873 74.5609C90.3941 74.4654 90.1776 74.4098 89.9476 74.4098H88.1895C87.3927 74.4098 86.7463 75.0555 86.7463 75.853C86.7463 76.6505 87.3927 77.2962 88.1895 77.2962H89.9476C90.1776 77.2962 90.3941 77.2413 90.5873 77.1451C89.992 82.339 85.8608 86.4709 80.6669 87.0655Z" fill="#EEC660"/>
<path d="M82.5559 74.4098H80.818V72.9298C80.818 72.133 80.1716 71.4866 79.3748 71.4866C78.5773 71.4866 77.9316 72.133 77.9316 72.9298V75.853C77.9316 76.6505 78.5773 77.2961 79.3748 77.2961H82.5559C83.3526 77.2961 83.999 76.6505 83.999 75.853C83.999 75.0555 83.3526 74.4098 82.5559 74.4098Z" fill="#EEC660"/>
</svg>
