<svg width="204" height="144" viewBox="0 0 204 144" fill="none" xmlns="http://www.w3.org/2000/svg">
<circle cx="87.4609" cy="4" r="4" fill="#B237EE"/>
<circle cx="87.4609" cy="59.1572" r="4" fill="#B237EE"/>
<circle cx="87.4609" cy="31.5786" r="4" fill="#B237EE"/>
<circle cx="4" cy="4" r="4" fill="#B237EE"/>
<circle cx="4" cy="59.1572" r="4" fill="#B237EE"/>
<circle cx="4" cy="31.5786" r="4" fill="#B237EE"/>
<circle cx="115.039" cy="4" r="4" fill="#B237EE"/>
<circle cx="115.039" cy="59.1572" r="4" fill="#B237EE"/>
<circle cx="115.039" cy="31.5786" r="4" fill="#B237EE"/>
<circle cx="31.5781" cy="4" r="4" fill="#B237EE"/>
<circle cx="31.5781" cy="59.1572" r="4" fill="#B237EE"/>
<circle cx="31.5781" cy="31.5786" r="4" fill="#B237EE"/>
<circle cx="142.619" cy="4" r="4" fill="#B237EE"/>
<circle cx="142.619" cy="59.1572" r="4" fill="#B237EE"/>
<circle cx="142.619" cy="31.5786" r="4" fill="#B237EE"/>
<circle cx="59.8828" cy="4" r="4" fill="#B237EE"/>
<circle cx="59.8828" cy="59.1572" r="4" fill="#B237EE"/>
<circle cx="59.8828" cy="31.5786" r="4" fill="#B237EE"/>
<circle cx="170.924" cy="59.1572" r="4" fill="#B237EE"/>
<circle cx="170.924" cy="31.5786" r="4" fill="#B237EE"/>
<circle cx="170.924" cy="4" r="4" fill="#B237EE"/>
<circle cx="200" cy="4" r="4" fill="#B237EE"/>
<circle cx="200" cy="59.1572" r="4" fill="#B237EE"/>
<circle cx="200" cy="31.5786" r="4" fill="#B237EE"/>
<circle cx="87.4609" cy="84" r="4" fill="#B237EE"/>
<circle cx="87.4609" cy="139.157" r="4" fill="#B237EE"/>
<circle cx="87.4609" cy="111.579" r="4" fill="#B237EE"/>
<circle cx="4" cy="84" r="4" fill="#B237EE"/>
<circle cx="4" cy="139.157" r="4" fill="#B237EE"/>
<circle cx="4" cy="111.579" r="4" fill="#B237EE"/>
<circle cx="115.039" cy="84" r="4" fill="#B237EE"/>
<circle cx="115.039" cy="139.157" r="4" fill="#B237EE"/>
<circle cx="115.039" cy="111.579" r="4" fill="#B237EE"/>
<circle cx="31.5781" cy="84" r="4" fill="#B237EE"/>
<circle cx="31.5781" cy="139.157" r="4" fill="#B237EE"/>
<circle cx="31.5781" cy="111.579" r="4" fill="#B237EE"/>
<circle cx="142.619" cy="84" r="4" fill="#B237EE"/>
<circle cx="142.619" cy="139.157" r="4" fill="#B237EE"/>
<circle cx="142.619" cy="111.579" r="4" fill="#B237EE"/>
<circle cx="59.8828" cy="84" r="4" fill="#B237EE"/>
<circle cx="59.8828" cy="139.157" r="4" fill="#B237EE"/>
<circle cx="59.8828" cy="111.579" r="4" fill="#B237EE"/>
<circle cx="170.924" cy="139.157" r="4" fill="#B237EE"/>
<circle cx="170.924" cy="111.579" r="4" fill="#B237EE"/>
<circle cx="170.924" cy="84" r="4" fill="#B237EE"/>
<circle cx="200" cy="84" r="4" fill="#B237EE"/>
<circle cx="200" cy="139.157" r="4" fill="#B237EE"/>
<circle cx="200" cy="111.579" r="4" fill="#B237EE"/>
</svg>
