<svg width="9" height="18" viewBox="0 0 9 18" fill="none" xmlns="http://www.w3.org/2000/svg">
<g opacity="0.6">
<path fill-rule="evenodd" clip-rule="evenodd" d="M1.78055 9.28852V17.6719C1.78055 17.7938 1.87593 17.8892 1.99782 17.8892H5.10848C5.23036 17.8892 5.32575 17.7938 5.32575 17.6719V9.15074H7.58323C7.69451 9.15074 7.7899 9.06595 7.8005 8.94937L8.01777 6.38453C8.02837 6.25734 7.92768 6.14606 7.8005 6.14606H5.32575V4.32312C5.32575 3.89388 5.6702 3.54943 6.09944 3.54943H7.8376C7.95948 3.54943 8.05486 3.45404 8.05486 3.33216V0.767318C8.05486 0.645435 7.95948 0.550049 7.8376 0.550049H4.89651C3.17425 0.550049 1.77525 1.94905 1.77525 3.67131V6.14606H0.217267C0.0953844 6.14606 0 6.24145 0 6.36333V8.92817C0 9.05005 0.0953844 9.14544 0.217267 9.14544H1.77525V9.28852H1.78055Z" fill="white"/>
</g>
</svg>
