<svg width="19" height="19" viewBox="0 0 19 19" fill="none" xmlns="http://www.w3.org/2000/svg">
<g opacity="0.6">
<path d="M12.6387 0.0201416H5.44763C2.43766 0.0201416 0 2.4578 0 5.46777V12.6589C0 15.6688 2.43766 18.1065 5.44763 18.1065H12.6387C15.6487 18.1065 18.0864 15.6688 18.0864 12.6589V5.46777C18.0864 2.4578 15.6487 0.0201416 12.6387 0.0201416ZM16.38 12.6589C16.38 14.7256 14.7054 16.4001 12.6387 16.4001H5.44763C3.38092 16.4001 1.70636 14.7256 1.70636 12.6589V5.46777C1.70636 3.40106 3.38092 1.7265 5.44763 1.7265H12.6387C14.7054 1.7265 16.38 3.40106 16.38 5.46777V12.6589Z" fill="white"/>
<path d="M13.7995 3.34808C13.2113 3.34808 12.7344 3.82502 12.7344 4.41323C12.7344 5.00145 13.2113 5.47838 13.7995 5.47838C14.3877 5.47838 14.8647 5.00145 14.8647 4.41323C14.8647 3.82502 14.3877 3.34808 13.7995 3.34808Z" fill="white"/>
<path d="M9.07274 4.71527C6.60859 4.71527 4.60547 6.71839 4.60547 9.18254C4.60547 11.6467 6.60859 13.6498 9.07274 13.6498C11.5369 13.6498 13.54 11.6467 13.54 9.18254C13.54 6.71839 11.5369 4.71527 9.07274 4.71527ZM9.07274 12.0388C7.49356 12.0388 6.21114 10.7564 6.21114 9.17724C6.21114 7.59807 7.49356 6.31565 9.07274 6.31565C10.6519 6.31565 11.9343 7.59807 11.9343 9.17724C11.9343 10.7564 10.6519 12.0388 9.07274 12.0388Z" fill="white"/>
</g>
</svg>
