<svg width="93" height="95" viewBox="0 0 93 95" fill="none" xmlns="http://www.w3.org/2000/svg">
<path d="M91.8654 40.6978C90.8859 39.2105 89.4013 38.1857 87.6753 37.7972C88.7888 35.6554 88.7434 32.9831 87.3251 30.8297C86.3161 29.2968 84.794 28.3067 83.1372 27.932C83.4326 27.3652 83.651 26.7535 83.7815 26.1084C84.1432 24.3146 83.7901 22.4866 82.7848 20.9609C81.8054 19.4729 80.3207 18.4481 78.5947 18.0603C79.7082 15.9186 79.6628 13.2462 78.2445 11.0922C76.1711 7.94294 71.9349 7.07681 68.8028 9.16277L62.0212 13.6797C58.4062 11.8358 54.5614 10.5276 50.571 9.78246C49.3098 7.85669 47.8432 6.06645 46.2015 4.46611L43.3959 1.73146C41.3412 -0.271865 38.119 -0.572655 35.7336 1.01682C32.9114 2.8962 32.1359 6.73471 34.0047 9.573C34.0782 9.68534 34.1502 9.79841 34.2216 9.91148C25.025 11.7829 16.6434 16.6912 10.4398 23.8833C3.70791 31.6886 0 41.685 0 52.0306C0 54.0137 0.134768 56.0003 0.40142 57.9341C2.45608 72.967 12.413 85.922 26.3856 91.7442C31.5673 93.9041 37.0654 95 42.7249 95C51.688 95 60.2678 92.2393 67.5373 87.0171C74.649 81.9073 79.9698 74.8558 82.9253 66.6251C83.2013 65.8582 82.8057 65.011 82.0432 64.7341C81.28 64.4572 80.4382 64.8544 80.1629 65.622C77.4106 73.2866 72.4545 79.8533 65.8293 84.613C59.0613 89.4756 51.0719 92.0457 42.7249 92.0457C38.4095 92.0457 34.1956 91.3608 30.1627 90.0098L42.1131 82.0508L42.1152 82.0494L42.1167 82.048L52.0484 75.4335C52.9399 74.8392 53.5496 73.9317 53.7629 72.8771C53.9762 71.8226 53.7687 70.747 53.1777 69.8504L53.0465 69.6504L54.9758 68.3653C56.3523 67.4484 58.0077 67.0889 59.6379 67.352C61.9981 67.7333 64.3951 67.2114 66.3871 65.8843L82.3891 55.227C82.2796 56.6229 82.0994 58.0109 81.8479 59.3757C81.6994 60.178 82.2262 60.9492 83.024 61.0978C83.1141 61.1152 83.2049 61.1232 83.2936 61.1232C83.9876 61.1232 84.6045 60.626 84.7356 59.9149C85.1428 57.7123 85.3771 55.456 85.4376 53.1968L89.9469 50.1933C91.4639 49.1829 92.4996 47.6384 92.8613 45.8453C93.2238 44.0514 92.87 42.2235 91.8654 40.6978ZM59.1694 15.5786L54.6818 18.5677L53.7982 16.1737C53.4292 15.1749 53.0062 14.1957 52.5377 13.2376C54.8144 13.8181 57.0312 14.6009 59.1694 15.5786ZM12.6588 25.8192C18.621 18.9069 26.7424 14.2602 35.6269 12.649C37.0524 16.1222 37.394 20.0028 36.5422 23.7014L32.9611 39.2605C32.3983 38.656 31.6675 38.2393 30.8445 38.0711C29.7952 37.8559 28.7264 38.0653 27.8349 38.6597L17.6913 45.4147L17.6899 45.4155L17.6891 45.4162L3.0593 55.1596C2.9793 54.1217 2.9375 53.0758 2.9375 52.0306C2.9375 42.3967 6.39029 33.0875 12.6588 25.8192ZM50.8845 72.2879C50.8275 72.5691 50.6647 72.8119 50.4261 72.9706L41.7037 78.7799L25.5136 54.4971C25.0617 53.8194 24.1493 53.639 23.4755 54.0934C22.8024 54.5479 22.6222 55.4647 23.0741 56.1424L39.2541 80.4114L26.8014 88.7052C14.4273 83.262 5.57231 71.7668 3.44342 58.3907L18.0906 48.6676L19.7762 51.1971C20.0602 51.6219 20.5243 51.8516 20.9978 51.8516C21.2789 51.8516 21.5635 51.7712 21.8143 51.6016C22.4882 51.1471 22.6683 50.2295 22.2165 49.5519L20.5423 47.0404L29.4572 41.1225C29.6943 40.9638 29.9789 40.9087 30.2586 40.966C30.5382 41.0232 30.7796 41.187 30.9374 41.4262L50.7288 71.4819C50.8859 71.7204 50.9414 72.0067 50.8845 72.2879ZM89.9829 45.2567C89.7768 46.2772 89.188 47.1557 88.3246 47.7304L83.1696 51.1638C83.1696 51.1638 83.1667 51.166 83.1646 51.1667L64.7648 63.4215C63.3883 64.3384 61.7329 64.6986 60.1027 64.4348C57.7432 64.0542 55.3462 64.5754 53.3535 65.9025L51.4243 67.1875L35.2147 42.5714L39.4047 24.3682C40.4836 19.6788 39.915 14.7393 37.8596 10.4362C37.8409 10.3913 37.8207 10.3478 37.7976 10.305C37.4027 9.49182 36.9544 8.70252 36.4535 7.94149C35.4792 6.46146 35.8835 4.46031 37.3558 3.47966C38.5997 2.65122 40.2804 2.80778 41.3513 3.85221L44.1569 6.58758C47.1917 9.54691 49.5736 13.2173 51.0438 17.2022L52.5716 21.3415C52.5745 21.3494 52.5774 21.356 52.5802 21.3632C52.5839 21.3726 52.5882 21.3828 52.5918 21.3922C52.6026 21.4176 52.6127 21.4408 52.6235 21.4603C52.653 21.5227 52.6855 21.5843 52.7244 21.643C53.1726 22.3236 54.0836 22.5098 54.7596 22.059L70.4251 11.6263C72.2066 10.4399 74.6158 10.932 75.7956 12.7237C76.9753 14.5154 76.486 16.9383 74.7045 18.1248L73.3445 19.0308L73.3431 19.0315L70.3098 21.0523C70.3054 21.0552 70.3025 21.0581 70.2982 21.0602C70.2809 21.0726 70.2643 21.0842 70.2507 21.0958C69.6237 21.5589 69.4615 22.4395 69.8961 23.0991C70.3436 23.7797 71.2553 23.9659 71.932 23.5151L74.9675 21.4929C75.8302 20.9196 76.8629 20.7174 77.8769 20.9247C78.8909 21.132 79.7651 21.7242 80.3359 22.5925C80.9074 23.46 81.1092 24.5001 80.9031 25.5199C80.6969 26.5404 80.1081 27.4189 79.2448 27.9936L74.85 30.9211C74.1733 31.3711 73.9881 32.2873 74.4364 32.9679C74.7189 33.3969 75.1859 33.6296 75.6623 33.6296C75.9404 33.6296 76.2222 33.5499 76.4716 33.3839L77.1519 32.9309L79.5057 31.3632C81.2879 30.1767 83.6964 30.6688 84.8762 32.4605C86.0559 34.2529 85.5666 36.6752 83.7851 37.8624L81.5899 39.3243C81.5783 39.3316 81.5668 39.3395 81.5553 39.3475L79.3903 40.7891C78.7136 41.2392 78.5284 42.1561 78.9767 42.8366C79.2592 43.2657 79.7262 43.4984 80.2026 43.4984C80.4807 43.4984 80.7625 43.4187 81.0119 43.2527L81.6922 42.7997L81.6929 42.799L84.0467 41.232C84.9093 40.6572 85.9428 40.4543 86.9575 40.6623C87.9722 40.8688 88.8457 41.4617 89.4172 42.3293C89.988 43.1969 90.189 44.2369 89.9829 45.2567Z" fill="#339269"/>
</svg>
