<svg width="49" height="45" viewBox="0 0 49 45" fill="none" xmlns="http://www.w3.org/2000/svg">
<path d="M12.6528 17H20.4002" stroke="#339269" stroke-width="1.6" stroke-linecap="round"/>
<path d="M6.84204 23H23.7894" stroke="#339269" stroke-width="1.6" stroke-linecap="round"/>
<path d="M9.74731 29H25.2421" stroke="#339269" stroke-width="1.6" stroke-linecap="round"/>
<path d="M38.8262 37.5C34.823 41.5097 29.2286 44 23.0379 44C10.8667 44 1 34.3741 1 22.5C1 10.6259 10.8667 1 23.0379 1C29.7282 1 35.7222 3.90844 39.7639 8.5C43.8056 13.0916 40.9744 10.3284 41.75 11.5" stroke="#339269" stroke-width="1.6" stroke-linecap="round"/>
<path d="M21.3684 19.5V14.75C21.3684 13.2375 22.5668 12 24.0316 12H45.3369C46.8016 12 48 13.2375 48 14.75V31.25C48 32.7625 46.8016 34 45.3369 34H24.0316C22.5668 34 21.3684 32.7625 21.3684 31.25V27" stroke="#339269" stroke-width="1.6" stroke-linecap="round" stroke-linejoin="round"/>
<path d="M48 14.7499L34.6842 24.3749L21.3684 14.7499" stroke="#339269" stroke-width="1.6" stroke-linecap="round" stroke-linejoin="round"/>
</svg>
