<svg width="20" height="16" viewBox="0 0 20 16" fill="none" xmlns="http://www.w3.org/2000/svg">
<g opacity="0.6">
<path d="M18.9993 1.96419C18.3937 2.24002 17.7281 2.40192 17.0745 2.51585C17.3863 2.46188 17.842 1.90422 18.0279 1.67637C18.3097 1.32858 18.5376 0.932824 18.6695 0.507087C18.6875 0.471109 18.6995 0.429135 18.6635 0.40515C18.6215 0.387161 18.5975 0.399153 18.5616 0.411146C17.83 0.800905 17.0745 1.08873 16.271 1.28661C16.205 1.30459 16.157 1.28661 16.1151 1.24463C16.0491 1.16668 15.9832 1.10072 15.9172 1.04076C15.5814 0.752935 15.2156 0.525076 14.8079 0.363176C14.2742 0.147309 13.6866 0.0513681 13.1049 0.0873458C12.5413 0.123324 11.9896 0.285224 11.4919 0.543065C10.9942 0.806902 10.5445 1.16668 10.1907 1.60441C9.82495 2.06013 9.55512 2.5938 9.41121 3.16345C9.27929 3.70911 9.28529 4.25477 9.36924 4.80643C9.38123 4.89638 9.37523 4.90837 9.29128 4.89638C6.14922 4.42867 3.54083 3.30136 1.42414 0.89085C1.33419 0.788913 1.28023 0.788913 1.20827 0.896846C0.284842 2.28199 0.734564 4.51261 1.88585 5.60994C2.04176 5.75385 2.19766 5.90376 2.37155 6.03568C2.31159 6.04767 1.53807 5.96372 0.854491 5.60994C0.764546 5.54997 0.716575 5.58595 0.710579 5.68789C0.704583 5.8378 0.716576 5.97571 0.734565 6.13761C0.914454 7.54674 1.88585 8.84794 3.22303 9.35163C3.37893 9.41759 3.55882 9.47755 3.72672 9.50753C3.42091 9.58548 3.1031 9.63345 2.23364 9.5615C2.12571 9.54351 2.08373 9.59748 2.12571 9.69941C2.7793 11.4863 4.19443 12.014 5.25577 12.3198C5.39968 12.3438 5.5376 12.3438 5.68151 12.3798C5.67552 12.3918 5.66352 12.3918 5.65753 12.4037C5.30374 12.9374 4.0865 13.3392 3.52284 13.537C2.49148 13.8968 1.37017 14.0587 0.278846 13.9508C0.104953 13.9268 0.0689752 13.9268 0.0210048 13.9508C-0.0269656 13.9808 0.0150085 14.0227 0.0689752 14.0647C0.290838 14.2086 0.512701 14.3405 0.746557 14.4665C1.43613 14.8322 2.16168 15.1261 2.91722 15.3359C6.81481 16.4093 11.2041 15.6238 14.1303 12.7156C16.4269 10.431 17.2304 7.28291 17.2304 4.13485C17.2304 4.00893 17.3743 3.94297 17.4642 3.87701C18.0639 3.42728 18.5376 2.88762 18.9813 2.28799C19.0832 2.15607 19.0772 2.03614 19.0772 1.98218C19.0772 1.97618 19.0772 1.96419 19.0772 1.96419C19.0712 1.91622 19.0772 1.92821 18.9993 1.96419Z" fill="white"/>
<path fill-rule="evenodd" clip-rule="evenodd" d="M6.30078 15.7437C6.30078 15.7137 6.64257 15.7437 6.30078 15.7437C6.30078 15.7257 6.34276 15.7437 6.30078 15.7437Z" fill="white"/>
<path fill-rule="evenodd" clip-rule="evenodd" d="M13.0506 0.105377C13.0326 0.123366 13.0026 0.123366 12.9727 0.105377C12.9966 0.105377 13.0266 0.105377 13.0506 0.105377Z" fill="white"/>
</g>
</svg>
